:FULLY-SPECIFIED
:FORCE-ALL-JOINTS-BE-3DOF
:DEGREES
577
root 7.03232 16.3883 -3.4718 -165.643 76.7369 -172.212
lfemur -17.7641 5.32835 -18.3446
ltibia 46.6803 -0 0
lfoot -34.1231 6.88917 0.0196529
ltoes -1.62637 0 0
rfemur -46.678 -9.09762 11.7463
rtibia 40.6833 -0 0
rfoot 15.1082 10.8774 -0.256839
rtoes -29.3437 0 0
lowerback 6.15282 -1.05426 -3.16882
upperback 2.25147 -1.49409 3.17562
thorax -0.971224 -0.752085 5.1765
lowerneck -4.84831 -13.5211 -4.03081
upperneck 10.6403 -18.3861 5.46258
head 4.86667 -8.87245 1.14265
lclavicle 3.29983e-14 -3.57812e-14 0
lhumerus -38.0727 -17.9508 93.6663
lradius 53.9805 -0 0
lwrist 21.4176 0 0
lhand -21.1227 -4.88606 0.0313731
lfingers 7.12502 -0 0
lthumb 5.2559 25.0274 0.0300844
rclavicle 3.29983e-14 -3.57812e-14 0
rhumerus 27.588 16.4744 -72.8948
rradius 133.944 -0 0
rwrist -43.9284 0 0
rhand -26.0485 -20.4848 -0.000648891
rfingers 7.12502 -0 0
rthumb 0.498878 -50.466 -0.000571679
578
root 6.99246 16.3872 -3.4588 -164.227 77.9265 -170.744
lfemur -17.4984 5.50139 -18.4142
ltibia 45.9765 -0 0
lfoot -33.8477 7.63615 0.0146915
ltoes -1.26597 0 0
rfemur -46.6762 -9.45663 12.2171
rtibia 42.0013 -0 0
rfoot 15.1028 10.7697 -0.258173
rtoes -28.2424 0 0
lowerback 5.95687 -1.07848 -3.37268
upperback 2.18261 -1.54528 3.06506
thorax -0.926318 -0.781941 5.17637
lowerneck -4.9424 -13.4663 -3.99169
upperneck 10.809 -18.3293 5.48993
head 4.93049 -8.83471 1.13643
lclavicle 3.29983e-14 -3.57812e-14 0
lhumerus -36.9749 -18.802 92.8733
lradius 53.8848 -0 0
lwrist 21.5799 0 0
lhand -20.9549 -4.66827 0.0322821
lfingers 7.12502 -0 0
lthumb 5.41788 25.2412 0.0309679
rclavicle 3.29983e-14 -3.57812e-14 0
rhumerus 27.6513 16.4141 -72.7113
rradius 133.938 -0 0
rwrist -43.9412 0 0
rhand -25.9735 -20.3364 -0.00108074
rfingers 7.12502 -0 0
rthumb 0.571307 -50.3175 -0.000986688
579
root 6.95312 16.3814 -3.44623 -162.585 79.0709 -169.041
lfemur -17.2597 5.65425 -18.4809
ltibia 45.3459 -0 0
lfoot -33.5781 8.35623 0.00822367
ltoes -0.902518 0 0
rfemur -46.682 -9.82006 12.6678
rtibia 43.3966 -0 0
rfoot 15.0442 10.6386 -0.254197
rtoes -27.1393 0 0
lowerback 5.77103 -1.09981 -3.57075
upperback 2.12197 -1.59021 2.95953
thorax -0.878823 -0.80824 5.17781
lowerneck -5.03219 -13.4147 -3.95535
upperneck 10.9761 -18.2775 5.52466
head 4.99447 -8.79914 1.13265
lclavicle 3.29983e-14 -3.57812e-14 0
lhumerus -35.8553 -19.643 92.0641
lradius 53.7898 -0 0
lwrist 21.7664 0 0
lhand -20.7911 -4.44155 0.0323601
lfingers 7.12502 -0 0
lthumb 5.57605 25.464 0.0310567
rclavicle 3.29983e-14 -3.57812e-14 0
rhumerus 27.6732 16.3651 -72.5562
rradius 133.934 -0 0
rwrist -43.9559 0 0
rhand -25.9037 -20.1899 -0.00156001
rfingers 7.12502 -0 0
rthumb 0.638774 -50.1709 -0.00144865
580
root 6.91332 16.3725 -3.43437 -160.684 80.1562 -167.07
lfemur -17.0507 5.78519 -18.5443
ltibia 44.7953 -0 0
lfoot -33.3173 9.04157 0.000671965
ltoes -0.539964 0 0
rfemur -46.6951 -10.1839 13.0932
rtibia 44.8539 -0 0
rfoot 14.933 10.4854 -0.245169
rtoes -26.0466 0 0
lowerback 5.59732 -1.11793 -3.76092
upperback 2.07019 -1.62836 2.86018
thorax -0.829257 -0.830698 5.1808
lowerneck -5.1167 -13.367 -3.92217
upperneck 11.14 -18.2312 5.56638
head 5.05792 -8.76615 1.13135
lclavicle 3.29983e-14 -3.57812e-14 0
lhumerus -34.7259 -20.4643 91.2473
lradius 53.6965 -0 0
lwrist 21.975 0 0
lhand -20.633 -4.20838 0.0316021
lfingers 7.12502 -0 0
lthumb 5.72868 25.6933 0.030345
rclavicle 3.29983e-14 -3.57812e-14 0
rhumerus 27.6536 16.3284 -72.4309
rradius 133.931 -0 0
rwrist -43.9725 0 0
rhand -25.8397 -20.0469 -0.00205544
rfingers 7.12502 -0 0
rthumb 0.700543 -50.0278 -0.00192743
